# Blender 4.1.1
# www.blender.org
mtllib reticle_big.mtl
o Cube
v -1.000000 1.000000 0.070000
v -1.000000 1.000000 -0.070000
v 1.000000 1.000000 0.070000
v 1.000000 1.000000 -0.070000
v -1.000000 -1.000000 0.070000
v -1.000000 -1.000000 -0.070000
v 1.000000 -1.000000 0.070000
v 1.000000 -1.000000 -0.070000
v -0.810000 0.800000 0.070000
v -0.810000 -0.800000 0.070000
v 0.810000 -0.800000 0.070000
v 0.810000 0.800000 0.070000
v -0.810000 -0.800000 -0.070000
v -0.810000 0.800000 -0.070000
v 0.810000 -0.800000 -0.070000
v 0.810000 0.800000 -0.070000
vn -0.0000 -0.0000 1.0000
vn 1.0000 -0.0000 -0.0000
vn -0.0000 -1.0000 -0.0000
vn -0.0000 -0.0000 -1.0000
vn -0.0000 1.0000 -0.0000
vn -1.0000 -0.0000 -0.0000
vt 0.875000 0.750000
vt 0.650000 0.726250
vt 0.850000 0.726250
vt 0.625000 0.500000
vt 0.875000 0.500000
vt 0.650000 0.523750
vt 0.625000 0.750000
vt 0.375000 1.000000
vt 0.375000 0.750000
vt 0.625000 0.000000
vt 0.375000 0.250000
vt 0.375000 0.000000
vt 0.125000 0.500000
vt 0.375000 0.500000
vt 0.150000 0.523750
vt 0.125000 0.750000
vt 0.350000 0.726250
vt 0.625000 0.250000
vt 0.000000 0.000000
vt 0.850000 0.523750
vt 0.625000 1.000000
vt 0.150000 0.726250
vt 0.350000 0.523750
s 0
usemtl Material.003
f 7/1/1 12/2/1 11/3/1
f 1/4/1 5/5/1 9/6/1
f 3/7/2 8/8/2 4/9/2
f 7/10/3 6/11/3 8/12/3
f 6/13/4 2/14/4 13/15/4
f 8/16/4 16/17/4 4/9/4
f 1/4/5 4/9/5 2/14/5
f 5/18/6 2/14/6 6/11/6
f 7/1/1 3/7/1 12/2/1
f 9/6/1 12/2/1 3/7/1
f 5/5/1 7/1/1 11/3/1
f 5/5/1 11/3/1 10/20/1
f 9/6/1 3/7/1 1/4/1
f 5/5/1 10/20/1 9/6/1
f 3/7/2 7/21/2 8/8/2
f 7/10/3 5/18/3 6/11/3
f 13/15/4 15/22/4 8/16/4
f 2/14/4 4/9/4 16/17/4
f 2/14/4 16/17/4 14/23/4
f 13/15/4 8/16/4 6/13/4
f 2/14/4 14/23/4 13/15/4
f 8/16/4 15/22/4 16/17/4
f 1/4/5 3/7/5 4/9/5
f 5/18/6 1/4/6 2/14/6
usemtl マテリアル.002
f 10/19/5 15/19/5 13/19/5
f 9/19/2 13/19/2 14/19/2
f 9/19/3 16/19/3 12/19/3
f 12/19/6 15/19/6 11/19/6
f 10/19/5 11/19/5 15/19/5
f 9/19/2 10/19/2 13/19/2
f 9/19/3 14/19/3 16/19/3
f 12/19/6 16/19/6 15/19/6
